<?xml version="1.0" encoding="UTF-8"?>
<!DOCTYPE svg PUBLIC "-//W3C//DTD SVG 1.1//EN" "http://www.w3.org/Graphics/SVG/1.1/DTD/svg11.dtd">
<!-- Creator: CorelDRAW -->
<svg xmlns="http://www.w3.org/2000/svg" xml:space="preserve" width="30.431mm" height="63.509mm" style="shape-rendering:geometricPrecision; text-rendering:geometricPrecision; image-rendering:optimizeQuality; fill-rule:evenodd; clip-rule:evenodd"
viewBox="0 0 30.431 63.509">
 <defs>
  <style type="text/css">
   <![CDATA[
    .str0 {stroke:#1F1A17;stroke-width:0.0762}
    .fil0 {fill:none}
    .fil1 {fill:#1F1A17}
   ]]>
  </style>
 </defs>
 <g id="Layer_x0020_1">
  <metadata id="CorelCorpID_0Corel-Layer"/>
  <rect class="fil0" x="-0.0865804" y="0.170202" width="30.4312" height="63.509"/>
  <g id="_201269856">
   <path id="_208389992" class="fil1 str0" d="M15.2155 41.6796c2.8816,0 5.2185,2.3369 5.2185,5.2185 0,2.8817 -2.3369,5.2186 -5.2185,5.2186 -2.8817,0 -5.2186,-2.3369 -5.2186,-5.2186 0,-2.8816 2.3369,-5.2185 5.2186,-5.2185zm0 3.2114c1.1083,0 2.0071,0.8988 2.0071,2.0071 0,1.1084 -0.8988,2.0072 -2.0071,2.0072 -1.1084,0 -2.0072,-0.8988 -2.0072,-2.0072 0,-1.1083 0.8988,-2.0071 2.0072,-2.0071z"/>
   <circle id="_199205496" class="fil1 str0" cx="15.0334" cy="34.3668" r="3.43221"/>
   <path id="_201277744" class="fil1 str0" d="M16.6023 13.9922c-0.0004,11.624 -0.0004,11.6205 -0.0004,11.6205l0 0c0,0.0011 0,0.0024 0,0.0035 0,0.803 -0.6511,1.4541 -1.454,1.4541 -0.7971,0 -1.4442,-0.6408 -1.4544,-1.435l0 0c0,0 0,0 0.0003,-11.6205l0 0c0,-0.0011 0,-0.0025 0,-0.0036 0,-0.803 0.6512,-1.454 1.4541,-1.454 0.7971,0 1.4441,0.6408 1.4544,1.435l0 0z"/>
  </g>
 </g>
</svg>
