<?xml version="1.0" encoding="UTF-8"?>
<!DOCTYPE svg PUBLIC "-//W3C//DTD SVG 1.1//EN" "http://www.w3.org/Graphics/SVG/1.1/DTD/svg11.dtd">
<!-- Creator: CorelDRAW -->
<svg xmlns="http://www.w3.org/2000/svg" xml:space="preserve" width="30.431mm" height="63.509mm" style="shape-rendering:geometricPrecision; text-rendering:geometricPrecision; image-rendering:optimizeQuality; fill-rule:evenodd; clip-rule:evenodd"
viewBox="0 0 30.431 63.509">
 <defs>
  <style type="text/css">
   <![CDATA[
    .str0 {stroke:#1F1A17;stroke-width:0.0762}
    .fil0 {fill:none}
    .fil1 {fill:#1F1A17}
   ]]>
  </style>
 </defs>
 <g id="Layer_x0020_1">
  <metadata id="CorelCorpID_0Corel-Layer"/>
  <rect class="fil0" x="-0.0865804" y="0.170202" width="30.4312" height="63.509"/>
  <g id="_203256224">
   <path id="_204461208" class="fil1 str0" d="M16.4037 52.5211c-0.0003,2.1849 -0.0003,2.1849 -0.0003,2.1849l0 0c0,0.0012 0,0.0026 0,0.0038 0,0.8566 -0.5919,1.5512 -1.3219,1.5512 -0.7246,0 -1.3128,-0.6836 -1.3221,-1.5309l0 0c0,0 0,0 0.0003,-2.1849l0 0c0,-0.0012 0,-0.0026 0,-0.0038 0,-0.8566 0.5919,-1.5512 1.3218,-1.5512 0.7247,0 1.3129,0.6836 1.3222,1.5309l0 0z"/>
   <circle id="_196758920" class="fil1 str0" cx="15.0816" cy="43.7227" r="3.43221"/>
   <path id="_202662400" class="fil1 str0" d="M15.1087 26.3586c2.8817,0 5.2186,2.3369 5.2186,5.2186 0,2.8816 -2.3369,5.2185 -5.2186,5.2185 -2.8816,0 -5.2186,-2.3369 -5.2186,-5.2185 0,-2.8817 2.337,-5.2186 5.2186,-5.2186zm0 3.2115c1.1084,0 2.0072,0.8987 2.0072,2.0071 0,1.1083 -0.8988,2.0071 -2.0072,2.0071 -1.1083,0 -2.0071,-0.8988 -2.0071,-2.0071 0,-1.1084 0.8988,-2.0071 2.0071,-2.0071z"/>
   <circle id="_203197384" class="fil1 str0" cx="15.1086" cy="19.166" r="3.43221"/>
   <path id="_208389944" class="fil1 str0" d="M16.4037 8.3102c-0.0003,2.1849 -0.0003,2.1849 -0.0003,2.1849l0 0c0,0.0012 0,0.0026 0,0.0038 0,0.8566 -0.5919,1.5512 -1.3219,1.5512 -0.7246,0 -1.3128,-0.6836 -1.3221,-1.5309l0 0c0,0 0,0 0.0003,-2.1849l0 0c0,-0.0012 0,-0.0026 0,-0.0038 0,-0.8566 0.5919,-1.5512 1.3218,-1.5512 0.7247,0 1.3129,0.6836 1.3222,1.5309l0 0z"/>
  </g>
 </g>
</svg>
