<?xml version="1.0" encoding="UTF-8"?>
<!DOCTYPE svg PUBLIC "-//W3C//DTD SVG 1.1//EN" "http://www.w3.org/Graphics/SVG/1.1/DTD/svg11.dtd">
<!-- Creator: CorelDRAW -->
<svg xmlns="http://www.w3.org/2000/svg" xml:space="preserve" width="30.431mm" height="63.509mm" style="shape-rendering:geometricPrecision; text-rendering:geometricPrecision; image-rendering:optimizeQuality; fill-rule:evenodd; clip-rule:evenodd"
viewBox="0 0 30.431 63.509">
 <defs>
  <style type="text/css">
   <![CDATA[
    .str0 {stroke:#1F1A17;stroke-width:0.0762}
    .fil0 {fill:none}
    .fil1 {fill:#1F1A17}
   ]]>
  </style>
 </defs>
 <g id="Layer_x0020_1">
  <metadata id="CorelCorpID_0Corel-Layer"/>
  <rect class="fil0" x="-0.0865804" y="0.170202" width="30.4312" height="63.509"/>
  <g id="_152951960">
   <circle id="_201342024" class="fil1 str0" cx="15.3773" cy="53.4701" r="3.43221"/>
   <path id="_201326168" class="fil1 str0" d="M16.8352 43.5327c-0.0004,2.4033 -0.0004,2.4033 -0.0004,2.4033l0 0c0,0.0013 0,0.0029 0,0.0042 0,0.9423 -0.6511,1.7063 -1.454,1.7063 -0.7971,0 -1.4442,-0.752 -1.4544,-1.684l0 0c0,0 0,0 0.0003,-2.4033l0 0c0,-0.0013 0,-0.0029 0,-0.0042 0,-0.9423 0.6512,-1.7063 1.4541,-1.7063 0.7971,0 1.4441,0.752 1.4544,1.684l0 0z"/>
   <circle id="_204722344" class="fil1 str0" cx="15.381" cy="35.8209" r="3.43221"/>
   <circle id="_153053632" class="fil1 str0" cx="15.381" cy="18.3681" r="3.43221"/>
   <path id="_196837072" class="fil1 str0" d="M16.7919 25.8372c-0.0003,2.4033 -0.0003,2.4033 -0.0003,2.4033l0 0c0,0.0013 0,0.0029 0,0.0042 0,0.9423 -0.6512,1.7063 -1.4541,1.7063 -0.7971,0 -1.4441,-0.752 -1.4544,-1.684l0 0c0,0 0,0 0.0004,-2.4033l0 0c0,-0.0013 0,-0.0029 0,-0.0042 0,-0.9423 0.6511,-1.7063 1.454,-1.7063 0.7971,0 1.4442,0.752 1.4544,1.684l0 0z"/>
   <path id="_153046256" class="fil1 str0" d="M16.8352 8.7277c-0.0004,2.4034 -0.0004,2.4034 -0.0004,2.4034l0 0c0,0.0013 0,0.0029 0,0.0042 0,0.9423 -0.6511,1.7063 -1.454,1.7063 -0.7971,0 -1.4442,-0.752 -1.4544,-1.684l0 0c0,0 0,0 0.0003,-2.4033l0 0c0,-0.0013 0,-0.0029 0,-0.0042 0,-0.9423 0.6512,-1.7063 1.4541,-1.7063 0.7971,0 1.4441,0.7519 1.4544,1.6839l0 0z"/>
  </g>
 </g>
</svg>
