<?xml version="1.0" encoding="UTF-8"?>
<!DOCTYPE svg PUBLIC "-//W3C//DTD SVG 1.1//EN" "http://www.w3.org/Graphics/SVG/1.1/DTD/svg11.dtd">
<!-- Creator: CorelDRAW -->
<svg xmlns="http://www.w3.org/2000/svg" xml:space="preserve" width="30.431mm" height="63.509mm" style="shape-rendering:geometricPrecision; text-rendering:geometricPrecision; image-rendering:optimizeQuality; fill-rule:evenodd; clip-rule:evenodd"
viewBox="0 0 30.431 63.509">
 <defs>
  <style type="text/css">
   <![CDATA[
    .str0 {stroke:#1F1A17;stroke-width:0.0762}
    .fil0 {fill:none}
    .fil1 {fill:#1F1A17}
   ]]>
  </style>
 </defs>
 <g id="Layer_x0020_1">
  <metadata id="CorelCorpID_0Corel-Layer"/>
  <rect class="fil0" x="-0.0865804" y="0.170202" width="30.4312" height="63.509"/>
  <g id="_153063856">
   <circle id="_198428984" class="fil1 str0" cx="15.0537" cy="55.343" r="3.43221"/>
   <path id="_153269048" class="fil1 str0" d="M15.1858 38.5134c2.8816,0 5.2185,2.3369 5.2185,5.2186 0,2.8816 -2.3369,5.2185 -5.2185,5.2185 -2.8817,0 -5.2186,-2.3369 -5.2186,-5.2185 0,-2.8817 2.3369,-5.2186 5.2186,-5.2186zm0 3.2114c1.1083,0 2.0071,0.8988 2.0071,2.0072 0,1.1083 -0.8988,2.0071 -2.0071,2.0071 -1.1084,0 -2.0072,-0.8988 -2.0072,-2.0071 0,-1.1084 0.8988,-2.0072 2.0072,-2.0072z"/>
   <path id="_201417944" class="fil1 str0" d="M16.5201 31.3456c-0.0003,2.1849 -0.0003,2.1849 -0.0003,2.1849l0 0c0,0.0012 0,0.0026 0,0.0038 0,0.8567 -0.592,1.5512 -1.3219,1.5512 -0.7246,0 -1.3129,-0.6836 -1.3222,-1.5309l0 0c0,0 0,0 0.0004,-2.1848l0 0c0,-0.0012 0,-0.0027 0,-0.0039 0,-0.8566 0.5919,-1.5512 1.3218,-1.5512 0.7246,0 1.3129,0.6837 1.3222,1.5309l0 0z"/>
   <path id="_203929368" class="fil1 str0" d="M15.0409 15.5596c2.8817,0 5.2186,2.3369 5.2186,5.2186 0,2.8816 -2.3369,5.2185 -5.2186,5.2185 -2.8816,0 -5.2185,-2.3369 -5.2185,-5.2185 0,-2.8817 2.3369,-5.2186 5.2185,-5.2186zm0 3.2115c1.1084,0 2.0072,0.8987 2.0072,2.0071 0,1.1083 -0.8988,2.0071 -2.0072,2.0071 -1.1083,0 -2.0071,-0.8988 -2.0071,-2.0071 0,-1.1084 0.8988,-2.0071 2.0071,-2.0071z"/>
   <circle id="_203929560" class="fil1 str0" cx="15.1856" cy="8.76895" r="3.43221"/>
  </g>
 </g>
</svg>
