<?xml version="1.0" encoding="UTF-8"?>
<!DOCTYPE svg PUBLIC "-//W3C//DTD SVG 1.1//EN" "http://www.w3.org/Graphics/SVG/1.1/DTD/svg11.dtd">
<!-- Creator: CorelDRAW -->
<svg xmlns="http://www.w3.org/2000/svg" xml:space="preserve" width="30.431mm" height="63.509mm" style="shape-rendering:geometricPrecision; text-rendering:geometricPrecision; image-rendering:optimizeQuality; fill-rule:evenodd; clip-rule:evenodd"
viewBox="0 0 30.431 63.509">
 <defs>
  <style type="text/css">
   <![CDATA[
    .str0 {stroke:#1F1A17;stroke-width:0.0762}
    .fil0 {fill:none}
    .fil1 {fill:#1F1A17}
   ]]>
  </style>
 </defs>
 <g id="Layer_x0020_1">
  <metadata id="CorelCorpID_0Corel-Layer"/>
  <rect class="fil0" x="-0.0865804" y="0.170202" width="30.4312" height="63.509"/>
  <g id="_203197384">
   <path id="_203256224" class="fil1 str0" d="M16.3207 55.0151c-0.0004,2.1849 -0.0004,2.1849 -0.0004,2.1849l0 0c0,0.0011 0,0.0026 0,0.0038 0,0.8566 -0.5919,1.5512 -1.3218,1.5512 -0.7247,0 -1.3129,-0.6836 -1.3222,-1.5309l0 0c0,0 0,0 0.0003,-2.1849l0 0c0,-0.0012 0,-0.0026 0,-0.0038 0,-0.8566 0.592,-1.5512 1.3219,-1.5512 0.7246,0 1.3128,0.6836 1.3222,1.5309l0 0z"/>
   <circle id="_203184952" class="fil1 str0" cx="14.9986" cy="46.1689" r="3.43221"/>
   <circle id="_203113104" class="fil1 str0" cx="14.8919" cy="35.6032" r="3.43221"/>
   <path id="_203025160" class="fil1 str0" d="M16.3858 25.0198c-0.0003,2.1848 -0.0003,2.1848 -0.0003,2.1848l0 0c0,0.0012 0,0.0027 0,0.0039 0,0.8566 -0.592,1.5511 -1.3219,1.5511 -0.7246,0 -1.3129,-0.6836 -1.3222,-1.5309l0 0c0,0 0,0 0.0004,-2.1848l0 0c0,-0.0012 0,-0.0027 0,-0.0038 0,-0.8567 0.5919,-1.5512 1.3218,-1.5512 0.7247,0 1.3129,0.6836 1.3222,1.5309l0 0z"/>
   <circle id="_153063096" class="fil1 str0" cx="14.9497" cy="16.3886" r="3.43221"/>
   <path id="_202662400" class="fil1 str0" d="M16.3628 5.9028c-0.0004,2.1849 -0.0004,2.1849 -0.0004,2.1849l0 0c0,0.0012 0,0.0026 0,0.0038 0,0.8567 -0.5919,1.5512 -1.3218,1.5512 -0.7246,0 -1.3129,-0.6836 -1.3222,-1.5309l0 0c0,0 0,0 0.0003,-2.1849l0 0c0,-0.0011 0,-0.0026 0,-0.0038 0,-0.8566 0.592,-1.5512 1.3219,-1.5512 0.7246,0 1.3129,0.6837 1.3222,1.5309l0 0z"/>
  </g>
 </g>
</svg>
