<?xml version="1.0" encoding="UTF-8"?>
<!DOCTYPE svg PUBLIC "-//W3C//DTD SVG 1.1//EN" "http://www.w3.org/Graphics/SVG/1.1/DTD/svg11.dtd">
<!-- Creator: CorelDRAW -->
<svg xmlns="http://www.w3.org/2000/svg" xml:space="preserve" width="30.431mm" height="63.509mm" style="shape-rendering:geometricPrecision; text-rendering:geometricPrecision; image-rendering:optimizeQuality; fill-rule:evenodd; clip-rule:evenodd"
viewBox="0 0 30.431 63.509">
 <defs>
  <style type="text/css">
   <![CDATA[
    .str0 {stroke:#1F1A17;stroke-width:0.0762}
    .fil0 {fill:none}
    .fil1 {fill:#1F1A17}
   ]]>
  </style>
 </defs>
 <g id="Layer_x0020_1">
  <metadata id="CorelCorpID_0Corel-Layer"/>
  <rect class="fil0" x="-0.0865804" y="0.170202" width="30.4312" height="63.509"/>
  <g id="_153079072">
   <path id="_197441368" class="fil1 str0" d="M16.2294 38.7539c-0.1883,0.0962 -0.4071,0.2464 -0.6565,0.4507l0 0c-1.0589,1.0161 -1.0548,2.2063 0.0125,3.5705l0 -0.0001c2.1232,2.0928 2.3322,4.933 0.6268,8.5203l0 0c-0.1607,0.3826 -0.4839,0.6937 -0.9118,0.8245 -0.7645,0.2337 -1.574,-0.1967 -1.8077,-0.9613 -0.1661,-0.5431 0.0031,-1.1091 0.3893,-1.4751l-0.0002 0.0002c0.9827,-1.3986 1.2889,-2.6578 0.9185,-3.7774l0 0c-0.1742,-0.4288 -0.5671,-0.9709 -1.1786,-1.6263l0 0c-2.3021,-2.1233 -2.0337,-4.7129 0.8053,-7.7689l-0.0661 0.0717c0.1723,-0.1998 0.4012,-0.3549 0.6721,-0.4377 0.7645,-0.2337 1.574,0.1967 1.8077,0.9612 0.1952,0.6383 -0.0726,1.3079 -0.6113,1.6477l0 0z"/>
   <path id="_203621736" class="fil1 str0" d="M15.184 21.5516c2.8817,0 5.2186,2.3369 5.2186,5.2185 0,2.8817 -2.3369,5.2186 -5.2186,5.2186 -2.8816,0 -5.2185,-2.3369 -5.2185,-5.2186 0,-2.8816 2.3369,-5.2185 5.2185,-5.2185zm0 3.2114c1.1084,0 2.0072,0.8988 2.0072,2.0071 0,1.1084 -0.8988,2.0072 -2.0072,2.0072 -1.1083,0 -2.0071,-0.8988 -2.0071,-2.0072 0,-1.1083 0.8988,-2.0071 2.0071,-2.0071z"/>
   <circle id="_195838840" class="fil1 str0" cx="15.1631" cy="14.0956" r="3.43221"/>
  </g>
 </g>
</svg>
