<?xml version="1.0" encoding="UTF-8"?>
<!DOCTYPE svg PUBLIC "-//W3C//DTD SVG 1.1//EN" "http://www.w3.org/Graphics/SVG/1.1/DTD/svg11.dtd">
<!-- Creator: CorelDRAW -->
<svg xmlns="http://www.w3.org/2000/svg" xml:space="preserve" width="30.431mm" height="63.509mm" style="shape-rendering:geometricPrecision; text-rendering:geometricPrecision; image-rendering:optimizeQuality; fill-rule:evenodd; clip-rule:evenodd"
viewBox="0 0 30.431 63.509">
 <defs>
  <style type="text/css">
   <![CDATA[
    .str0 {stroke:#1F1A17;stroke-width:0.0762}
    .fil0 {fill:none}
    .fil1 {fill:#1F1A17}
   ]]>
  </style>
 </defs>
 <g id="Layer_x0020_1">
  <metadata id="CorelCorpID_0Corel-Layer"/>
  <rect class="fil0" x="-0.0865804" y="0.170202" width="30.4312" height="63.509"/>
  <g id="_153051088">
   <circle id="_153065704" class="fil1 str0" cx="15.4902" cy="53.1919" r="3.43221"/>
   <path id="_153044472" class="fil1 str0" d="M16.6995 42.253c-0.0003,2.1849 -0.0003,2.1849 -0.0003,2.1849l0 0c0,0.0012 0,0.0026 0,0.0038 0,0.8567 -0.592,1.5512 -1.3219,1.5512 -0.7246,0 -1.3128,-0.6836 -1.3222,-1.5309l0 0c0,0 0,0 0.0004,-2.1848l0 0c0,-0.0012 0,-0.0027 0,-0.0039 0,-0.8566 0.5919,-1.5512 1.3218,-1.5512 0.7247,0 1.3129,0.6837 1.3222,1.5309l0 0z"/>
   <path id="_150949280" class="fil1 str0" d="M15.6038 26.243c2.8817,0 5.2186,2.3369 5.2186,5.2186 0,2.8816 -2.3369,5.2185 -5.2186,5.2185 -2.8817,0 -5.2186,-2.3369 -5.2186,-5.2185 0,-2.8817 2.3369,-5.2186 5.2186,-5.2186zm0 3.2114c1.1083,0 2.0071,0.8988 2.0071,2.0072 0,1.1083 -0.8988,2.0071 -2.0071,2.0071 -1.1083,0 -2.0071,-0.8988 -2.0071,-2.0071 0,-1.1084 0.8988,-2.0072 2.0071,-2.0072z"/>
   <path id="_208421176" class="fil1 str0" d="M16.5313 9.182c-0.1883,0.0962 -0.4072,0.2464 -0.6565,0.4507l0 0c-1.0589,1.0161 -1.0548,2.2063 0.0125,3.5704l0 -0.0001c2.1232,2.0929 2.3322,4.933 0.6268,8.5204l0 -0.0001c-0.1608,0.3826 -0.484,0.6937 -0.9118,0.8245 -0.7645,0.2338 -1.574,-0.1967 -1.8078,-0.9612 -0.166,-0.5432 0.0032,-1.1091 0.3893,-1.4751l-0.0001 0.0001c0.9827,-1.3986 1.2889,-2.6577 0.9185,-3.7773l0 0c-0.1742,-0.4288 -0.5671,-0.9709 -1.1787,-1.6264l0 0c-2.302,-2.1232 -2.0336,-4.7128 0.8054,-7.7688l-0.0661 0.0716c0.1723,-0.1997 0.4012,-0.3548 0.672,-0.4376 0.7646,-0.2338 1.5741,0.1967 1.8078,0.9612 0.1952,0.6382 -0.0726,1.3079 -0.6113,1.6477l0 0z"/>
  </g>
 </g>
</svg>
