<?xml version="1.0" encoding="UTF-8"?>
<!DOCTYPE svg PUBLIC "-//W3C//DTD SVG 1.1//EN" "http://www.w3.org/Graphics/SVG/1.1/DTD/svg11.dtd">
<!-- Creator: CorelDRAW -->
<svg xmlns="http://www.w3.org/2000/svg" xml:space="preserve" width="30.431mm" height="63.509mm" style="shape-rendering:geometricPrecision; text-rendering:geometricPrecision; image-rendering:optimizeQuality; fill-rule:evenodd; clip-rule:evenodd"
viewBox="0 0 30.431 63.509">
 <defs>
  <style type="text/css">
   <![CDATA[
    .str0 {stroke:#1F1A17;stroke-width:0.0762}
    .fil0 {fill:none}
    .fil1 {fill:#1F1A17}
   ]]>
  </style>
 </defs>
 <g id="Layer_x0020_1">
  <metadata id="CorelCorpID_0Corel-Layer"/>
  <rect class="fil0" x="-0.0865804" y="0.170202" width="30.4312" height="63.509"/>
  <g id="_200100424">
   <circle id="_151389680" class="fil1 str0" cx="15.3772" cy="55.1812" r="3.43221"/>
   <path id="_208389968" class="fil1 str0" d="M16.8317 40.4445c-0.0004,5.7535 -0.0004,5.7535 -0.0004,5.7535l0 0c0,0.0011 0,0.0025 0,0.0036 0,0.803 -0.6511,1.454 -1.454,1.454 -0.7971,0 -1.4442,-0.6408 -1.4544,-1.435l0 0c0,0 0,0 0.0003,-5.7535l0 0c0,-0.0011 0,-0.0024 0,-0.0035 0,-0.803 0.6512,-1.4541 1.4541,-1.4541 0.7971,0 1.4441,0.6408 1.4544,1.435l0 0z"/>
   <circle id="_154091896" class="fil1 str0" cx="15.4042" cy="31.6721" r="3.43221"/>
   <path id="_197417560" class="fil1 str0" d="M16.8317 16.9248c-0.0004,5.7535 -0.0004,5.7535 -0.0004,5.7535l0 0c0,0.0011 0,0.0025 0,0.0036 0,0.803 -0.6511,1.454 -1.454,1.454 -0.7971,0 -1.4442,-0.6408 -1.4544,-1.435l0 0c0,0 0,0 0.0003,-5.7535l0 0c0,-0.0011 0,-0.0024 0,-0.0035 0,-0.803 0.6512,-1.4541 1.4541,-1.4541 0.7971,0 1.4441,0.6408 1.4544,1.435l0 0z"/>
   <circle id="_199238336" class="fil1 str0" cx="15.3772" cy="7.9643" r="3.43221"/>
  </g>
 </g>
</svg>
