<?xml version="1.0" encoding="UTF-8"?>
<!DOCTYPE svg PUBLIC "-//W3C//DTD SVG 1.1//EN" "http://www.w3.org/Graphics/SVG/1.1/DTD/svg11.dtd">
<!-- Creator: CorelDRAW -->
<svg xmlns="http://www.w3.org/2000/svg" xml:space="preserve" width="30.431mm" height="63.509mm" style="shape-rendering:geometricPrecision; text-rendering:geometricPrecision; image-rendering:optimizeQuality; fill-rule:evenodd; clip-rule:evenodd"
viewBox="0 0 30.431 63.509">
 <defs>
  <style type="text/css">
   <![CDATA[
    .str0 {stroke:#1F1A17;stroke-width:0.0762}
    .fil0 {fill:none}
    .fil1 {fill:#1F1A17}
   ]]>
  </style>
 </defs>
 <g id="Layer_x0020_1">
  <metadata id="CorelCorpID_0Corel-Layer"/>
  <rect class="fil0" x="-0.0865804" y="0.170202" width="30.4312" height="63.509"/>
  <g id="_200100424">
   <path id="_199010200" class="fil1 str0" d="M17.0431 55.2028c-0.0003,2.1849 -0.0003,2.1849 -0.0003,2.1849l0 0c0,0.0012 0,0.0026 0,0.0038 0,0.8566 -0.5919,1.5512 -1.3218,1.5512 -0.7247,0 -1.3129,-0.6836 -1.3222,-1.5309l0 0c0,0 0,0 0.0003,-2.1849l0 0c0,-0.0011 0,-0.0026 0,-0.0038 0,-0.8566 0.5919,-1.5512 1.3219,-1.5512 0.7246,0 1.3128,0.6836 1.3221,1.5309l0 0z"/>
   <circle id="_201342024" class="fil1 str0" cx="15.5391" cy="46.9293" r="3.43221"/>
   <circle id="_201326168" class="fil1 str0" cx="15.5391" cy="37.2776" r="3.43221"/>
   <circle id="_204722344" class="fil1 str0" cx="15.5391" cy="27.626" r="3.43221"/>
   <path id="_153053632" class="fil1 str0" d="M17.026 7.5108c-0.1884,0.0962 -0.4072,0.2464 -0.6565,0.4507l0 0c-1.0589,1.0161 -1.0548,2.2063 0.0125,3.5705l-0.0001 -0.0001c2.1233,2.0928 2.3322,4.933 0.6268,8.5203l0.0001 0c-0.1608,0.3826 -0.484,0.6937 -0.9118,0.8245 -0.7645,0.2337 -1.574,-0.1967 -1.8078,-0.9612 -0.1661,-0.5432 0.0032,-1.1092 0.3893,-1.4752l-0.0001 0.0002c0.9827,-1.3986 1.2889,-2.6577 0.9184,-3.7774l0 0c-0.1741,-0.4288 -0.567,-0.9709 -1.1786,-1.6263l0 0c-2.3021,-2.1233 -2.0336,-4.7129 0.8054,-7.7688l-0.0662 0.0716c0.1723,-0.1998 0.4013,-0.3549 0.6721,-0.4377 0.7645,-0.2337 1.5741,0.1967 1.8078,0.9612 0.1951,0.6383 -0.0727,1.3079 -0.6113,1.6477l0 0z"/>
  </g>
 </g>
</svg>
