<?xml version="1.0" encoding="UTF-8"?>
<!DOCTYPE svg PUBLIC "-//W3C//DTD SVG 1.1//EN" "http://www.w3.org/Graphics/SVG/1.1/DTD/svg11.dtd">
<!-- Creator: CorelDRAW -->
<svg xmlns="http://www.w3.org/2000/svg" xml:space="preserve" width="30.431mm" height="63.509mm" style="shape-rendering:geometricPrecision; text-rendering:geometricPrecision; image-rendering:optimizeQuality; fill-rule:evenodd; clip-rule:evenodd"
viewBox="0 0 30.431 63.509">
 <defs>
  <style type="text/css">
   <![CDATA[
    .str0 {stroke:#1F1A17;stroke-width:0.0762}
    .fil0 {fill:none}
    .fil1 {fill:#1F1A17}
   ]]>
  </style>
 </defs>
 <g id="Layer_x0020_1">
  <metadata id="CorelCorpID_0Corel-Layer"/>
  <rect class="fil0" x="-0.0865804" y="0.170202" width="30.4312" height="63.509"/>
  <g id="_200650600">
   <path id="_201277744" class="fil1 str0" d="M16.699 38.149c-0.1883,0.0962 -0.4072,0.2464 -0.6565,0.4507l0 0c-1.0589,1.0161 -1.0548,2.2063 0.0125,3.5705l-0.0001 -0.0001c2.1233,2.0928 2.3322,4.933 0.6269,8.5203l0 0c-0.1608,0.3826 -0.484,0.6937 -0.9118,0.8245 -0.7645,0.2337 -1.574,-0.1967 -1.8078,-0.9612 -0.166,-0.5432 0.0032,-1.1092 0.3893,-1.4752l-0.0001 0.0002c0.9827,-1.3986 1.2889,-2.6577 0.9185,-3.7774l0 0c-0.1742,-0.4288 -0.5671,-0.9709 -1.1787,-1.6263l0 0c-2.3021,-2.1233 -2.0336,-4.7129 0.8054,-7.7689l-0.0662 0.0717c0.1724,-0.1998 0.4013,-0.3549 0.6721,-0.4377 0.7645,-0.2337 1.5741,0.1967 1.8078,0.9612 0.1952,0.6383 -0.0727,1.3079 -0.6113,1.6477l0 0z"/>
   <circle id="_153021832" class="fil1 str0" cx="15.3705" cy="28.526" r="3.43221"/>
   <path id="_153048384" class="fil1 str0" d="M16.8249 14.3867c-0.0004,5.7535 -0.0004,5.7535 -0.0004,5.7535l0 0c0,0.0011 0,0.0025 0,0.0036 0,0.803 -0.6511,1.454 -1.454,1.454 -0.7971,0 -1.4441,-0.6408 -1.4544,-1.435l0 0c0,0 0,0 0.0004,-5.7535l0 0c0,-0.0011 0,-0.0024 0,-0.0035 0,-0.803 0.6511,-1.4541 1.454,-1.4541 0.7971,0 1.4442,0.6408 1.4544,1.435l0 0z"/>
  </g>
 </g>
</svg>
