<?xml version="1.0" encoding="UTF-8"?>
<!DOCTYPE svg PUBLIC "-//W3C//DTD SVG 1.1//EN" "http://www.w3.org/Graphics/SVG/1.1/DTD/svg11.dtd">
<!-- Creator: CorelDRAW -->
<svg xmlns="http://www.w3.org/2000/svg" xml:space="preserve" width="30.431mm" height="63.509mm" style="shape-rendering:geometricPrecision; text-rendering:geometricPrecision; image-rendering:optimizeQuality; fill-rule:evenodd; clip-rule:evenodd"
viewBox="0 0 30.431 63.509">
 <defs>
  <style type="text/css">
   <![CDATA[
    .str0 {stroke:#1F1A17;stroke-width:0.0762}
    .fil0 {fill:none}
    .fil1 {fill:#1F1A17}
   ]]>
  </style>
 </defs>
 <g id="Layer_x0020_1">
  <metadata id="CorelCorpID_0Corel-Layer"/>
  <rect class="fil0" x="-0.0865804" y="0.170202" width="30.4312" height="63.509"/>
  <g id="_152637488">
   <path id="_153044472" class="fil1 str0" d="M16.5377 52.6081c-0.0004,2.1849 -0.0004,2.1849 -0.0004,2.1849l0 0c0,0.0012 0,0.0026 0,0.0038 0,0.8567 -0.5919,1.5512 -1.3218,1.5512 -0.7246,0 -1.3129,-0.6836 -1.3222,-1.5309l0 0c0,0 0,0 0.0003,-2.1848l0 0c0,-0.0012 0,-0.0027 0,-0.0039 0,-0.8566 0.592,-1.5512 1.3219,-1.5512 0.7246,0 1.3129,0.6837 1.3222,1.5309l0 0z"/>
   <circle id="_208133608" class="fil1 str0" cx="15.2156" cy="43.8097" r="3.43221"/>
   <circle id="_153166296" class="fil1 str0" cx="15.2425" cy="33.2934" r="3.43221"/>
   <path id="_153553880" class="fil1 str0" d="M16.67 18.8162c-0.0004,5.7535 -0.0004,5.7535 -0.0004,5.7535l0 0c0,0.0011 0,0.0024 0,0.0035 0,0.803 -0.6511,1.4541 -1.454,1.4541 -0.7971,0 -1.4441,-0.6408 -1.4544,-1.435l0 0c0,0 0,0 0.0004,-5.7535l0 0c0,-0.0011 0,-0.0025 0,-0.0036 0,-0.803 0.6511,-1.454 1.454,-1.454 0.7971,0 1.4442,0.6408 1.4544,1.435l0 0z"/>
   <circle id="_198882504" class="fil1 str0" cx="15.2156" cy="10.3862" r="3.43221"/>
  </g>
 </g>
</svg>
