<?xml version="1.0" encoding="UTF-8"?>
<!DOCTYPE svg PUBLIC "-//W3C//DTD SVG 1.1//EN" "http://www.w3.org/Graphics/SVG/1.1/DTD/svg11.dtd">
<!-- Creator: CorelDRAW -->
<svg xmlns="http://www.w3.org/2000/svg" xml:space="preserve" width="30.431mm" height="63.509mm" style="shape-rendering:geometricPrecision; text-rendering:geometricPrecision; image-rendering:optimizeQuality; fill-rule:evenodd; clip-rule:evenodd"
viewBox="0 0 30.431 63.509">
 <defs>
  <style type="text/css">
   <![CDATA[
    .str0 {stroke:#1F1A17;stroke-width:0.0762}
    .fil0 {fill:none}
    .fil1 {fill:#1F1A17}
   ]]>
  </style>
 </defs>
 <g id="Layer_x0020_1">
  <metadata id="CorelCorpID_0Corel-Layer"/>
  <rect class="fil0" x="-0.0865804" y="0.170202" width="30.4312" height="63.509"/>
  <g id="_199098280">
   <path id="_203547768" class="fil1 str0" d="M15.8689 48.7617c0.1378,0.2891 0.4404,0.6553 0.9085,1.0956l0.0006 0.0006c0.4132,0.4781 0.5379,0.9734 0.3724,1.4872l0 0c-0.0259,0.3588 -0.1982,0.7059 -0.5045,0.9461 -0.0383,0.0259 -0.0809,0.055 -0.1205,0.0791l0 0c-1.0468,0.4835 -1.9805,-0.21 -2.7945,-2.0702l0 0c-0.5855,-1.4358 -0.394,-2.7346 0.5768,-3.8833l0 0c1.1666,-1.3778 1.1524,-2.5432 -0.0488,-3.5029l0 0c-0.0883,-0.0587 -0.163,-0.1433 -0.2408,-0.2298 -0.4502,-0.5792 -0.3527,-1.4179 0.2266,-1.8687 0.5744,-0.4552 1.4106,-0.3508 1.8657,0.2254 0.0253,0.0327 0.0525,0.0698 0.0735,0.1118l0 0c1.628,2.0244 1.7521,3.9821 0.3724,5.8651l0 0c-0.4885,0.6157 -0.7176,1.1987 -0.6874,1.744l0 0z"/>
   <path id="_199676280" class="fil1 str0" d="M16.7808 29.3685c-0.0004,5.7535 -0.0004,5.7535 -0.0004,5.7535l0 0c0,0.0011 0,0.0024 0,0.0035 0,0.803 -0.6511,1.4541 -1.454,1.4541 -0.7971,0 -1.4442,-0.6408 -1.4544,-1.435l0 0c0,0 0,0 0.0004,-5.7535l0 0c0,-0.0011 0,-0.0025 0,-0.0036 0,-0.803 0.6511,-1.454 1.454,-1.454 0.7971,0 1.4441,0.6408 1.4544,1.435l0 0z"/>
   <path id="_204461208" class="fil1 str0" d="M16.7807 10.8191c-0.0004,11.6241 -0.0004,11.6205 -0.0004,11.6205l0 0c0,0.0011 0,0.0025 0,0.0036 0,0.803 -0.6511,1.454 -1.454,1.454 -0.7971,0 -1.4442,-0.6408 -1.4544,-1.435l0 0c0,0 0,0 0.0003,-11.6205l0 0c0,-0.0011 0,-0.0025 0,-0.0036 0,-0.803 0.6512,-1.454 1.4541,-1.454 0.7971,0 1.4441,0.6408 1.4544,1.435l0 0z"/>
  </g>
 </g>
</svg>
