<?xml version="1.0" encoding="UTF-8"?>
<!DOCTYPE svg PUBLIC "-//W3C//DTD SVG 1.1//EN" "http://www.w3.org/Graphics/SVG/1.1/DTD/svg11.dtd">
<!-- Creator: CorelDRAW -->
<svg xmlns="http://www.w3.org/2000/svg" xml:space="preserve" width="30.431mm" height="63.509mm" style="shape-rendering:geometricPrecision; text-rendering:geometricPrecision; image-rendering:optimizeQuality; fill-rule:evenodd; clip-rule:evenodd"
viewBox="0 0 30.431 63.509">
 <defs>
  <style type="text/css">
   <![CDATA[
    .str0 {stroke:#1F1A17;stroke-width:0.0762}
    .fil0 {fill:none}
    .fil1 {fill:#1F1A17}
   ]]>
  </style>
 </defs>
 <g id="Layer_x0020_1">
  <metadata id="CorelCorpID_0Corel-Layer"/>
  <rect class="fil0" x="-0.0865804" y="0.170202" width="30.4312" height="63.509"/>
  <g id="_197449760">
   <circle id="_153166296" class="fil1 str0" cx="15.1779" cy="51.1495" r="3.43221"/>
   <path id="_153553880" class="fil1 str0" d="M16.5652 40.7912c-0.0004,2.1849 -0.0004,2.1849 -0.0004,2.1849l0 0c0,0.0012 0,0.0026 0,0.0038 0,0.8566 -0.5919,1.5512 -1.3218,1.5512 -0.7247,0 -1.3129,-0.6836 -1.3222,-1.5309l0 0c0,0 0,0 0.0003,-2.1849l0 0c0,-0.0012 0,-0.0026 0,-0.0038 0,-0.8566 0.592,-1.5512 1.3219,-1.5512 0.7246,0 1.3128,0.6836 1.3222,1.5309l0 0z"/>
   <circle id="_198882504" class="fil1 str0" cx="15.22" cy="32.2061" r="3.43221"/>
   <path id="_152637488" class="fil1 str0" d="M15.4604 21.2325c0.1366,0.1333 0.7001,0.6575 1.6917,1.5695l0 0c0.2873,0.3199 0.4108,0.7769 0.2916,1.2228 -0.1878,0.696 -0.9097,1.1084 -1.6063,0.9205 -0.1938,-0.0533 -0.3582,-0.145 -0.4999,-0.2626l0.0327 0.0239c-2.8053,-2.2696 -3.3185,-4.8288 -1.5473,-7.6852l0 0c1.9748,-2.7006 1.9991,-4.5805 0.0764,-5.6368l-0.0023 -0.0021c-0.5532,-0.2691 -0.8555,-0.9021 -0.6894,-1.5188 0.1895,-0.7002 0.9075,-1.1111 1.6053,-0.9225 0.205,0.0593 0.3815,0.1545 0.5272,0.283l-0.0979 -0.0791c2.6555,2.1016 3.11,4.5944 1.367,7.4682l0 0c-1.4314,1.8728 -1.8144,3.413 -1.1488,4.6192l0 0z"/>
  </g>
 </g>
</svg>
