<?xml version="1.0" encoding="UTF-8"?>
<!DOCTYPE svg PUBLIC "-//W3C//DTD SVG 1.1//EN" "http://www.w3.org/Graphics/SVG/1.1/DTD/svg11.dtd">
<!-- Creator: CorelDRAW -->
<svg xmlns="http://www.w3.org/2000/svg" xml:space="preserve" width="30.431mm" height="63.509mm" style="shape-rendering:geometricPrecision; text-rendering:geometricPrecision; image-rendering:optimizeQuality; fill-rule:evenodd; clip-rule:evenodd"
viewBox="0 0 30.431 63.509">
 <defs>
  <style type="text/css">
   <![CDATA[
    .str0 {stroke:#1F1A17;stroke-width:0.0762}
    .fil0 {fill:none}
    .fil1 {fill:#1F1A17}
   ]]>
  </style>
 </defs>
 <g id="Layer_x0020_1">
  <metadata id="CorelCorpID_0Corel-Layer"/>
  <rect class="fil0" x="-0.0865804" y="0.170202" width="30.4312" height="63.509"/>
  <g id="_204695896">
   <path id="_204461208" class="fil1 str0" d="M16.8296 47.9154c-0.0004,5.7535 -0.0004,5.7535 -0.0004,5.7535l0 0c0,0.0012 0,0.0025 0,0.0036 0,0.803 -0.6511,1.4541 -1.454,1.4541 -0.7971,0 -1.4442,-0.6408 -1.4544,-1.4351l0 0c0,0 0,0 0.0003,-5.7534l0 0c0,-0.0012 0,-0.0025 0,-0.0036 0,-0.803 0.6511,-1.4541 1.4541,-1.4541 0.7971,0 1.4441,0.6408 1.4544,1.435l0 0z"/>
   <path id="_196758920" class="fil1 str0" d="M16.8267 36.0697c-0.0003,5.7535 -0.0003,5.7535 -0.0003,5.7535l0 0c0,0.0011 0,0.0025 0,0.0036 0,0.8029 -0.6511,1.454 -1.4541,1.454 -0.7971,0 -1.4441,-0.6408 -1.4543,-1.435l0 0c0,0 0,0 0.0003,-5.7535l0 0c0,-0.0011 0,-0.0025 0,-0.0036 0,-0.803 0.6511,-1.454 1.454,-1.454 0.7972,0 1.4442,0.6408 1.4544,1.435l0 0z"/>
   <path id="_202662400" class="fil1 str0" d="M16.8256 24.1756c-0.0003,5.7535 -0.0003,5.7535 -0.0003,5.7535l0 0c0,0.0012 0,0.0025 0,0.0036 0,0.803 -0.6512,1.4541 -1.4541,1.4541 -0.7971,0 -1.4441,-0.6408 -1.4544,-1.4351l0 0c0,0 0,0 0.0004,-5.7534l0 0c0,-0.0012 0,-0.0025 0,-0.0036 0,-0.803 0.6511,-1.4541 1.454,-1.4541 0.7971,0 1.4442,0.6408 1.4544,1.435l0 0z"/>
   <path id="_203197384" class="fil1 str0" d="M15.4381 8.99c2.8817,0 5.2186,2.3369 5.2186,5.2186 0,2.8816 -2.3369,5.2185 -5.2186,5.2185 -2.8816,0 -5.2185,-2.3369 -5.2185,-5.2185 0,-2.8817 2.3369,-5.2186 5.2185,-5.2186zm0 3.2114c1.1084,0 2.0072,0.8988 2.0072,2.0072 0,1.1083 -0.8988,2.0071 -2.0072,2.0071 -1.1083,0 -2.0071,-0.8988 -2.0071,-2.0071 0,-1.1084 0.8988,-2.0072 2.0071,-2.0072z"/>
  </g>
 </g>
</svg>
