<?xml version="1.0" encoding="UTF-8"?>
<!DOCTYPE svg PUBLIC "-//W3C//DTD SVG 1.1//EN" "http://www.w3.org/Graphics/SVG/1.1/DTD/svg11.dtd">
<!-- Creator: CorelDRAW -->
<svg xmlns="http://www.w3.org/2000/svg" xml:space="preserve" width="30.431mm" height="63.509mm" style="shape-rendering:geometricPrecision; text-rendering:geometricPrecision; image-rendering:optimizeQuality; fill-rule:evenodd; clip-rule:evenodd"
viewBox="0 0 30.431 63.509">
 <defs>
  <style type="text/css">
   <![CDATA[
    .str0 {stroke:#1F1A17;stroke-width:0.0762}
    .fil0 {fill:none}
    .fil1 {fill:#1F1A17}
   ]]>
  </style>
 </defs>
 <g id="Layer_x0020_1">
  <metadata id="CorelCorpID_0Corel-Layer"/>
  <rect class="fil0" x="-0.0865804" y="0.170202" width="30.4312" height="63.509"/>
  <g id="_153048384">
   <path id="_201249864" class="fil1 str0" d="M16.7272 52.0357c-0.0003,2.1849 -0.0003,2.1849 -0.0003,2.1849l0 0c0,0.0012 0,0.0026 0,0.0038 0,0.8567 -0.592,1.5512 -1.3219,1.5512 -0.7246,0 -1.3129,-0.6836 -1.3222,-1.5309l0 0c0,0 0,0 0.0004,-2.1848l0 0c0,-0.0012 0,-0.0027 0,-0.0039 0,-0.8566 0.5919,-1.5512 1.3218,-1.5512 0.7247,0 1.3129,0.6837 1.3222,1.5309l0 0z"/>
   <circle id="_152635248" class="fil1 str0" cx="15.3461" cy="44.8441" r="3.43221"/>
   <circle id="_202856712" class="fil1 str0" cx="15.2827" cy="35.3996" r="3.43221"/>
   <circle id="_153050704" class="fil1 str0" cx="15.4051" cy="12.1269" r="3.43221"/>
   <path id="_199205496" class="fil1 str0" d="M13.8892 24.1519c0,-0.8242 0,-2.2127 0,-4.551l0 0c0,-0.0012 0,-0.0023 0,-0.0034 0,-0.8029 0.6513,-1.4541 1.4542,-1.4541 0.7972,0 1.444,0.6406 1.4541,1.435l0 0c0,2.2834 0,3.66 0,4.4915l-0.0006 0c0,3.9766 0,3.9766 0,3.9766l0 0c0,0.0012 0,0.0023 0,0.0034 0,0.8029 -0.6512,1.4541 -1.4541,1.4541 -0.7972,0 -1.444,-0.6406 -1.4541,-1.435l0 0c0,0 0,0 0,-3.9171l0.0005 0z"/>
  </g>
 </g>
</svg>
