<?xml version="1.0" encoding="UTF-8"?>
<!DOCTYPE svg PUBLIC "-//W3C//DTD SVG 1.1//EN" "http://www.w3.org/Graphics/SVG/1.1/DTD/svg11.dtd">
<!-- Creator: CorelDRAW -->
<svg xmlns="http://www.w3.org/2000/svg" xml:space="preserve" width="30.431mm" height="63.509mm" style="shape-rendering:geometricPrecision; text-rendering:geometricPrecision; image-rendering:optimizeQuality; fill-rule:evenodd; clip-rule:evenodd"
viewBox="0 0 30.431 63.509">
 <defs>
  <style type="text/css">
   <![CDATA[
    .str0 {stroke:#1F1A17;stroke-width:0.0762}
    .fil0 {fill:none}
    .fil1 {fill:#1F1A17}
   ]]>
  </style>
 </defs>
 <g id="Layer_x0020_1">
  <metadata id="CorelCorpID_0Corel-Layer"/>
  <rect class="fil0" x="-0.0865804" y="0.170202" width="30.4312" height="63.509"/>
  <g id="_208389968">
   <path id="_153269048" class="fil1 str0" d="M15.7273 8.7079c-0.0339,0.1649 0.1348,0.478 0.5074,0.9385l0 0c0.0593,0.0914 0.1094,0.1914 0.1465,0.2989 0.2455,0.7119 -0.1328,1.4884 -0.8454,1.7339 -0.6526,0.2251 -1.3599,-0.0742 -1.6621,-0.6749l0.0043 0.008 0.1625 0.2476c-0.0327,-0.0476 -0.0655,-0.0957 -0.0964,-0.1433l-0.0704 -0.113c-0.3752,-0.555 -0.5928,-1.2435 -0.6512,-2.0636l0 0c0.0195,-0.4626 0.1694,-0.8962 0.4459,-1.3021l0 0c0.5524,-0.8179 0.685,-1.3614 0.3977,-1.6293l0 0c-0.2298,-0.1593 -0.4121,-0.3908 -0.5104,-0.6748 -0.2455,-0.7126 0.1333,-1.4891 0.8453,-1.7345 0.6403,-0.2208 1.3328,0.063 1.6443,0.6403l0 0c0.8009,1.2836 0.8712,2.4094 0.2114,3.3762l0 0c-0.2994,0.4442 -0.4777,0.8086 -0.5294,1.0921l0 0z"/>
   <path id="_201417944" class="fil1 str0" d="M16.3337 56.0551c-0.0003,2.1849 -0.0003,2.1849 -0.0003,2.1849l0 0c0,0.0011 0,0.0026 0,0.0038 0,0.8566 -0.5919,1.5512 -1.3218,1.5512 -0.7247,0 -1.3129,-0.6837 -1.3222,-1.5309l0 0c0,0 0,0 0.0003,-2.1849l0 0c0,-0.0012 0,-0.0026 0,-0.0038 0,-0.8566 0.5919,-1.5512 1.3219,-1.5512 0.7246,0 1.3128,0.6836 1.3221,1.5309l0 0z"/>
   <circle id="_203929368" class="fil1 str0" cx="15.029" cy="47.6777" r="3.43221"/>
   <circle id="_203929560" class="fil1 str0" cx="14.9263" cy="37.4174" r="3.43221"/>
   <path id="_198428984" class="fil1 str0" d="M16.2579 26.6465c-0.0003,2.1848 -0.0003,2.1848 -0.0003,2.1848l0 0c0,0.0012 0,0.0027 0,0.0038 0,0.8567 -0.5919,1.5512 -1.3218,1.5512 -0.7247,0 -1.3129,-0.6836 -1.3222,-1.5309l0 0c0,0 0,0 0.0003,-2.1848l0 0c0,-0.0012 0,-0.0027 0,-0.0038 0,-0.8567 0.5919,-1.5512 1.3219,-1.5512 0.7246,0 1.3128,0.6836 1.3221,1.5309l0 0z"/>
   <circle id="_151389680" class="fil1 str0" cx="14.8348" cy="18.4791" r="3.43221"/>
  </g>
 </g>
</svg>
